<?xml version="1.0" standalone="no"?>
<!DOCTYPE svg PUBLIC "-//W3C//DTD SVG 20010904//EN"
 "http://www.w3.org/TR/2001/REC-SVG-20010904/DTD/svg10.dtd">
<svg version="1.0" xmlns="http://www.w3.org/2000/svg"
 width="256.000000pt" height="256.000000pt" viewBox="0 0 256.000000 256.000000"
 preserveAspectRatio="xMidYMid meet">
<metadata>
Created by potrace 1.11, written by Peter Selinger 2001-2013
</metadata>
<g transform="translate(0.000000,256.000000) scale(0.100000,-0.100000)"
fill="#000000" stroke="none">
<path d="M892 2548 c-17 -17 -17 -279 0 -296 16 -16 200 -16 216 0 17 17 17
279 0 296 -8 8 -47 12 -108 12 -61 0 -100 -4 -108 -12z m148 -148 l0 -80 -40
0 -40 0 0 80 0 80 40 0 40 0 0 -80z"/>
<path d="M1772 2548 c-29 -29 -6 -68 40 -68 l27 0 3 -111 c3 -94 6 -114 21
-123 12 -8 22 -8 35 0 15 10 17 30 20 149 2 93 -1 142 -9 151 -14 18 -120 19
-137 2z"/>
<path d="M1452 2468 c-8 -8 -12 -56 -12 -148 0 -92 4 -140 12 -148 16 -16 200
-16 216 0 17 17 17 279 0 296 -8 8 -47 12 -108 12 -61 0 -100 -4 -108 -12z
m148 -148 l0 -80 -40 0 -40 0 0 80 0 80 40 0 40 0 0 -80z"/>
<path d="M332 2388 c-17 -17 -17 -279 0 -296 16 -16 200 -16 216 0 17 17 17
279 0 296 -8 8 -47 12 -108 12 -61 0 -100 -4 -108 -12z m148 -148 l0 -80 -40
0 -40 0 0 80 0 80 40 0 40 0 0 -80z"/>
<path d="M2012 2388 c-8 -8 -12 -56 -12 -148 0 -92 4 -140 12 -148 16 -16 200
-16 216 0 17 17 17 279 0 296 -8 8 -47 12 -108 12 -61 0 -100 -4 -108 -12z
m148 -148 l0 -80 -40 0 -40 0 0 80 0 80 40 0 40 0 0 -80z"/>
<path d="M652 2348 c-29 -29 -6 -68 40 -68 l27 0 3 -111 c3 -94 6 -114 20
-123 13 -8 23 -8 35 0 16 10 18 30 21 149 2 93 -1 142 -9 151 -14 18 -120 19
-137 2z"/>
<path d="M1212 2348 c-29 -29 -6 -68 40 -68 l27 0 3 -111 c3 -94 6 -114 21
-123 12 -8 22 -8 35 0 15 10 17 30 20 149 2 93 -1 142 -9 151 -14 18 -120 19
-137 2z"/>
<path d="M25 1935 c-34 -33 -32 -60 16 -162 23 -48 51 -110 64 -138 12 -27 39
-85 59 -128 l36 -77 0 -666 c0 -586 2 -670 16 -699 32 -68 -25 -65 1069 -65
912 0 989 1 1016 17 60 36 59 17 59 746 l0 665 29 64 c16 34 45 99 66 143 120
255 121 260 80 300 l-24 25 -1231 0 -1231 0 -24 -25z m2437 -92 c-11 -21 -27
-56 -37 -78 -10 -22 -42 -91 -72 -154 -29 -62 -53 -117 -53 -122 0 -5 -18 -9
-40 -9 -22 0 -40 2 -40 4 0 3 25 62 55 132 58 135 62 153 43 172 -17 17 -2059
17 -2076 0 -19 -19 -15 -37 43 -173 30 -70 55 -130 55 -132 0 -2 -18 -3 -40
-3 -22 0 -40 4 -40 9 0 5 -27 67 -61 138 -33 70 -70 148 -81 173 -11 25 -25
53 -30 63 -8 16 52 17 1192 17 l1200 0 -18 -37z m-232 -128 c0 -3 -4 -13 -10
-23 -5 -9 -27 -60 -49 -112 -34 -82 -43 -95 -65 -98 -19 -2 -26 1 -26 13 0 9
-11 27 -25 40 -24 25 -26 25 -215 25 -189 0 -191 0 -215 -25 -14 -13 -25 -31
-25 -40 0 -13 -38 -15 -320 -15 -282 0 -320 2 -320 15 0 9 -11 27 -25 40 -24
25 -26 25 -215 25 -189 0 -191 0 -215 -25 -14 -13 -25 -31 -25 -40 0 -12 -7
-15 -26 -13 -26 3 -40 28 -105 191 l-19 47 950 0 c523 0 950 -2 950 -5z
m-1350 -275 l0 -40 -160 0 -160 0 0 40 0 40 160 0 160 0 0 -40z m1120 0 l0
-40 -160 0 -160 0 0 40 0 40 160 0 160 0 0 -40z m-1520 -55 c0 -9 11 -27 25
-40 24 -25 26 -25 215 -25 189 0 191 0 215 25 14 13 25 31 25 40 0 13 38 15
320 15 282 0 320 -2 320 -15 0 -9 11 -27 25 -40 24 -25 26 -25 215 -25 189 0
191 0 215 25 14 13 25 31 25 40 0 12 16 15 100 15 l100 0 0 -648 c0 -491 -3
-651 -12 -660 -9 -9 -89 -12 -300 -12 l-288 0 0 131 c0 151 -11 188 -65 213
-49 24 -621 24 -670 0 -54 -25 -65 -62 -65 -213 l0 -131 -288 0 c-211 0 -291
3 -300 12 -9 9 -12 169 -12 660 l0 648 100 0 c84 0 100 -3 100 -15z m760
-1165 l0 -140 -140 0 -140 0 0 130 c0 112 2 130 18 139 9 6 72 11 140 11 l122
0 0 -140z m341 130 c17 -10 19 -22 19 -140 l0 -130 -140 0 -140 0 0 140 0 140
121 0 c66 0 129 -5 140 -10z"/>
<path d="M450 1225 c-26 -32 13 -81 48 -59 34 22 22 74 -18 74 -10 0 -23 -7
-30 -15z"/>
<path d="M610 1225 c-26 -32 13 -81 48 -59 34 22 22 74 -18 74 -10 0 -23 -7
-30 -15z"/>
<path d="M770 1225 c-26 -32 13 -81 48 -59 34 22 22 74 -18 74 -10 0 -23 -7
-30 -15z"/>
<path d="M930 1225 c-26 -32 13 -81 48 -59 34 22 22 74 -18 74 -10 0 -23 -7
-30 -15z"/>
<path d="M1090 1225 c-26 -32 13 -81 48 -59 34 22 22 74 -18 74 -10 0 -23 -7
-30 -15z"/>
<path d="M1250 1225 c-26 -32 13 -81 48 -59 34 22 22 74 -18 74 -10 0 -23 -7
-30 -15z"/>
<path d="M1410 1225 c-26 -32 13 -81 48 -59 34 22 22 74 -18 74 -10 0 -23 -7
-30 -15z"/>
<path d="M1570 1225 c-26 -32 13 -81 48 -59 34 22 22 74 -18 74 -10 0 -23 -7
-30 -15z"/>
<path d="M1730 1225 c-26 -32 13 -81 48 -59 34 22 22 74 -18 74 -10 0 -23 -7
-30 -15z"/>
<path d="M1890 1225 c-26 -32 13 -81 48 -59 34 22 22 74 -18 74 -10 0 -23 -7
-30 -15z"/>
<path d="M2050 1225 c-26 -32 13 -81 48 -59 34 22 22 74 -18 74 -10 0 -23 -7
-30 -15z"/>
<path d="M450 1065 c-26 -32 13 -81 48 -59 34 22 22 74 -18 74 -10 0 -23 -7
-30 -15z"/>
<path d="M610 1065 c-26 -32 13 -81 48 -59 34 22 22 74 -18 74 -10 0 -23 -7
-30 -15z"/>
<path d="M770 1065 c-26 -32 13 -81 48 -59 34 22 22 74 -18 74 -10 0 -23 -7
-30 -15z"/>
<path d="M930 1065 c-26 -32 13 -81 48 -59 34 22 22 74 -18 74 -10 0 -23 -7
-30 -15z"/>
<path d="M1090 1065 c-26 -32 13 -81 48 -59 34 22 22 74 -18 74 -10 0 -23 -7
-30 -15z"/>
<path d="M1250 1065 c-26 -32 13 -81 48 -59 34 22 22 74 -18 74 -10 0 -23 -7
-30 -15z"/>
<path d="M1410 1065 c-26 -32 13 -81 48 -59 34 22 22 74 -18 74 -10 0 -23 -7
-30 -15z"/>
<path d="M1570 1065 c-26 -32 13 -81 48 -59 34 22 22 74 -18 74 -10 0 -23 -7
-30 -15z"/>
<path d="M1730 1065 c-26 -32 13 -81 48 -59 34 22 22 74 -18 74 -10 0 -23 -7
-30 -15z"/>
<path d="M1890 1065 c-26 -32 13 -81 48 -59 34 22 22 74 -18 74 -10 0 -23 -7
-30 -15z"/>
<path d="M2050 1065 c-26 -32 13 -81 48 -59 34 22 22 74 -18 74 -10 0 -23 -7
-30 -15z"/>
<path d="M450 905 c-26 -32 13 -81 48 -59 34 22 22 74 -18 74 -10 0 -23 -7
-30 -15z"/>
<path d="M610 905 c-26 -32 13 -81 48 -59 34 22 22 74 -18 74 -10 0 -23 -7
-30 -15z"/>
<path d="M770 905 c-26 -32 13 -81 48 -59 34 22 22 74 -18 74 -10 0 -23 -7
-30 -15z"/>
<path d="M930 905 c-26 -32 13 -81 48 -59 34 22 22 74 -18 74 -10 0 -23 -7
-30 -15z"/>
<path d="M1090 905 c-26 -32 13 -81 48 -59 34 22 22 74 -18 74 -10 0 -23 -7
-30 -15z"/>
<path d="M1250 905 c-26 -32 13 -81 48 -59 34 22 22 74 -18 74 -10 0 -23 -7
-30 -15z"/>
<path d="M1410 905 c-26 -32 13 -81 48 -59 34 22 22 74 -18 74 -10 0 -23 -7
-30 -15z"/>
<path d="M1570 905 c-26 -32 13 -81 48 -59 34 22 22 74 -18 74 -10 0 -23 -7
-30 -15z"/>
<path d="M1730 905 c-26 -32 13 -81 48 -59 34 22 22 74 -18 74 -10 0 -23 -7
-30 -15z"/>
<path d="M1890 905 c-26 -32 13 -81 48 -59 34 22 22 74 -18 74 -10 0 -23 -7
-30 -15z"/>
<path d="M2050 905 c-26 -32 13 -81 48 -59 34 22 22 74 -18 74 -10 0 -23 -7
-30 -15z"/>
<path d="M450 745 c-26 -32 13 -81 48 -59 34 22 22 74 -18 74 -10 0 -23 -7
-30 -15z"/>
<path d="M610 745 c-26 -32 13 -81 48 -59 34 22 22 74 -18 74 -10 0 -23 -7
-30 -15z"/>
<path d="M770 745 c-26 -32 13 -81 48 -59 34 22 22 74 -18 74 -10 0 -23 -7
-30 -15z"/>
<path d="M930 745 c-26 -32 13 -81 48 -59 34 22 22 74 -18 74 -10 0 -23 -7
-30 -15z"/>
<path d="M1090 745 c-26 -32 13 -81 48 -59 34 22 22 74 -18 74 -10 0 -23 -7
-30 -15z"/>
<path d="M1250 745 c-26 -32 13 -81 48 -59 34 22 22 74 -18 74 -10 0 -23 -7
-30 -15z"/>
<path d="M1410 745 c-26 -32 13 -81 48 -59 34 22 22 74 -18 74 -10 0 -23 -7
-30 -15z"/>
<path d="M1570 745 c-26 -32 13 -81 48 -59 34 22 22 74 -18 74 -10 0 -23 -7
-30 -15z"/>
<path d="M1730 745 c-26 -32 13 -81 48 -59 34 22 22 74 -18 74 -10 0 -23 -7
-30 -15z"/>
<path d="M1890 745 c-26 -32 13 -81 48 -59 34 22 22 74 -18 74 -10 0 -23 -7
-30 -15z"/>
<path d="M2050 745 c-26 -32 13 -81 48 -59 34 22 22 74 -18 74 -10 0 -23 -7
-30 -15z"/>
<path d="M450 585 c-26 -32 13 -81 48 -59 22 14 27 41 12 59 -16 19 -44 19
-60 0z"/>
<path d="M610 585 c-15 -18 -10 -45 13 -59 34 -22 73 27 47 59 -16 19 -44 19
-60 0z"/>
<path d="M770 585 c-26 -32 13 -81 48 -59 22 14 27 41 12 59 -16 19 -44 19
-60 0z"/>
<path d="M932 588 c-16 -16 -15 -43 2 -57 9 -8 110 -11 351 -9 309 3 339 4
349 21 8 12 8 22 0 35 -10 16 -40 17 -350 20 -256 2 -343 -1 -352 -10z"/>
<path d="M1730 585 c-26 -32 13 -81 48 -59 22 14 27 41 12 59 -16 19 -44 19
-60 0z"/>
<path d="M1890 585 c-26 -32 13 -81 48 -59 22 14 27 41 12 59 -16 19 -44 19
-60 0z"/>
<path d="M2050 585 c-15 -18 -10 -45 13 -59 34 -22 73 27 47 59 -16 19 -44 19
-60 0z"/>
</g>
</svg>
